#!OML:ASF H:\Terrain\Walking\May29\JustinRory\rory.ASF
:FULLY-SPECIFIED
:DEGREES
1441
root 6.64721 18.9685 9.05026 -174.207 -1.41209 -181.167
lowerback -0.231977 0.321773 -2.79144
upperback -0.152525 0.420601 -0.579586
thorax -0.0422158 0.206362 0.971369
lowerneck -14.5814 -2.43496 -3.17954
upperneck 12.8689 -2.67308 -0.0895266
head 6.34776 -1.48252 0.226993
rclavicle -1.86361e-015 7.35503e-015
rhumerus -22.0742 36.3962 -105.377
rradius 112.335
rwrist -14.4145
rhand -35.4443 89.9593
rfingers 7.12502
rthumb -8.57359 -299.847
lclavicle -1.86361e-015 7.35503e-015
lhumerus -20.8274 -42.7219 106.791
lradius 117.198
lwrist 22.6483
lhand -36.1488 24.6882
lfingers 7.12502
lthumb -9.25337 54.4651
rfemur -4.34393 8.61252 15.9303
rtibia 9.62875
rfoot -5.44183 -19.9269
rtoes 14.9797
lfemur 1.15744 -9.9124 -17.9215
ltibia -1.43125e-014
lfoot -7.03598 15.7961
ltoes -11.0611
1442
root 6.64531 18.9675 9.04246 -174.1 -1.55281 -181.15
lowerback -0.393791 0.322623 -2.74639
upperback -0.151203 0.426785 -0.613057
thorax 0.050195 0.208005 0.912901
lowerneck -15.1021 -2.43994 -2.9955
upperneck 13.1274 -2.67223 -0.246513
head 6.51379 -1.48688 0.139082
rclavicle 3.47873e-015 -9.74045e-015
rhumerus -21.0178 31.7143 -104.023
rradius 115.087
rwrist -36.5736
rhand -0.759337 266.956
rfingers 7.12502
rthumb 24.8629 -295.359
lclavicle 3.47873e-015 -9.74045e-015
lhumerus -21.2599 -41.3342 107.464
lradius 118.104
lwrist 22.9882
lhand -31.9168 25.0936
lfingers 7.12502
lthumb -5.16837 55.0105
rfemur -4.30535 8.47469 16.0022
rtibia 9.49292
rfoot -5.67596 -19.977
rtoes 15.5565
lfemur 1.04584 -10.0466 -17.8706
ltibia 1.11319e-014
lfoot -7.07347 15.7817
ltoes -10.395
1443
root 6.64233 18.9684 9.03353 -173.969 -1.67866 -180.957
lowerback -0.602142 0.361295 -2.4828
upperback -0.178971 0.484242 -0.628881
thorax 0.138855 0.236178 0.750719
lowerneck -15.0117 -2.49896 -2.82159
upperneck 12.8299 -2.76974 -0.361491
head 6.39997 -1.5302 0.0680389
rclavicle -1.2424e-015 6.75868e-015
rhumerus -22.29 32.6114 -105.281
rradius 115.24
rwrist -25.42
rhand -18.3139 439.175
rfingers 7.12502
rthumb 7.96738 -310.655
lclavicle -1.2424e-015 6.75868e-015
lhumerus -22.1667 -40.8451 108.48
lradius 118.164
lwrist 21.3811
lhand -32.241 23.4375
lfingers 7.12502
lthumb -5.48141 53.3466
rfemur -4.29796 8.36415 16.2266
rtibia 9.32686
rfoot -5.78931 -19.9728
rtoes 15.4321
lfemur 0.90353 -10.1458 -17.6254
ltibia -7.95139e-015
lfoot -7.06736 15.7751
ltoes -10.3308
1444
root 6.63818 18.969 9.02326 -173.94 -1.66901 -180.76
lowerback -0.642201 0.395686 -2.23166
upperback -0.193581 0.531299 -0.589998
thorax 0.146866 0.260539 0.650482
lowerneck -14.7112 -2.50216 -3.06328
upperneck 12.2861 -2.75843 -0.149676
head 6.182 -1.51138 0.183864
rclavicle 3.70236e-015 9.93923e-016
rhumerus -23.0064 33.1217 -106.06
rradius 115.392
rwrist -17.9898
rhand -28.0248 433.963
rfingers 7.12502
rthumb -1.40988 -316.012
lclavicle 3.70236e-015 9.93923e-016
lhumerus -22.7018 -40.6251 109.084
lradius 117.963
lwrist 20.3296
lhand -33.6963 21.7526
lfingers 7.12502
lthumb -6.88642 51.6206
rfemur -4.18117 8.39159 16.4079
rtibia 9.08043
rfoot -5.58634 -19.9429
rtoes 14.9507
lfemur 0.917674 -10.1133 -17.4137
ltibia -9.54166e-015
lfoot -7.13499 15.7437
ltoes -10.5439
1445
root 6.63033 18.9675 9.00942 -173.946 -1.69708 -180.668
lowerback -0.67431 0.414293 -2.09958
upperback -0.230523 0.556473 -0.552515
thorax 0.127267 0.273987 0.615153
lowerneck -14.4438 -2.46445 -3.28778
upperneck 11.8764 -2.69336 0.031662
head 6.01162 -1.47062 0.290126
rclavicle 1.66482e-014 -5.96354e-016
rhumerus -23.6019 33.6694 -106.6
rradius 115.62
rwrist -12.0172
rhand -34.6842 423.262
rfingers 7.12502
rthumb -7.83997 -326.572
lclavicle 1.66482e-014 -5.96354e-016
lhumerus -23.0951 -40.4861 109.46
lradius 118.12
lwrist 19.19
lhand -33.2297 23.0871
lfingers 7.12502
lthumb -6.436 52.9693
rfemur -3.95672 8.37155 16.4772
rtibia 8.75688
rfoot -5.33146 -19.9133
rtoes 14.8029
lfemur 0.970816 -10.1319 -17.3395
ltibia -9.54166e-015
lfoot -7.2036 15.7292
ltoes -10.7663
1446
root 6.6199 18.9644 8.99228 -173.991 -1.80879 -180.491
lowerback -0.706537 0.483187 -1.8509
upperback -0.306611 0.647088 -0.53168
thorax 0.0676516 0.320475 0.497759
lowerneck -14.0887 -2.52535 -3.26779
upperneck 11.5645 -2.79511 0.0510456
head 5.85481 -1.51467 0.289962
rclavicle 1.55549e-014 -1.17283e-014
rhumerus -23.9693 33.7116 -106.849
rradius 116.167
rwrist -9.44945
rhand -35.9985 411.891
rfingers 7.12502
rthumb -9.10834 -337.893
lclavicle 1.55549e-014 -1.17283e-014
lhumerus -23.6575 -40.5418 109.93
lradius 118.441
lwrist 18.8602
lhand -32.6212 23.822
lfingers 7.12502
lthumb -5.84846 53.7213
rfemur -3.68188 8.27951 16.6449
rtibia 8.46838
rfoot -5.23896 -19.8156
rtoes 15.3037
lfemur 1.05399 -10.2268 -17.1863
ltibia 1.11319e-014
lfoot -7.26833 15.7185
ltoes -10.4722
1447
root 6.61104 18.9623 8.97863 -173.994 -1.95013 -180.294
lowerback -0.755746 0.511857 -1.61115
upperback -0.388278 0.684591 -0.474903
thorax 0.0129916 0.340246 0.421873
lowerneck -13.8302 -2.56622 -3.21509
upperneck 11.3618 -2.85928 -0.0346507
head 5.74651 -1.54886 0.25313
rclavicle -9.39258e-015 -3.97569e-015
rhumerus -24.0125 33.5248 -106.837
rradius 116.707
rwrist -9.8884
rhand -34.5306 406.418
rfingers 7.12502
rthumb -7.69168 -343.422
lclavicle -9.39258e-015 -3.97569e-015
lhumerus -24.113 -40.5317 110.272
lradius 118.608
lwrist 19.2766
lhand -32.8201 22.9564
lfingers 7.12502
lthumb -6.04055 52.8503
rfemur -3.52222 8.15926 16.8504
rtibia 8.2877
rfoot -5.29201 -19.7471
rtoes 16.2016
lfemur 1.07256 -10.3463 -16.9787
ltibia -3.18055e-015
lfoot -7.36528 15.6788
ltoes -9.7005
1448
root 6.60604 18.9618 8.96989 -173.95 -2.10308 -180.313
lowerback -0.872598 0.450098 -1.66477
upperback -0.412887 0.604804 -0.421082
thorax 0.0536591 0.300332 0.507306
lowerneck -13.7273 -2.4909 -3.17403
upperneck 11.1786 -2.74722 -0.200858
head 5.66694 -1.50396 0.206718
rclavicle 5.72748e-015 1.98785e-015
rhumerus -23.9284 33.6121 -106.691
rradius 116.729
rwrist -9.86541
rhand -34.5705 406.096
rfingers 7.12502
rthumb -7.73019 -343.743
lclavicle 5.72748e-015 1.98785e-015
lhumerus -24.1374 -40.4416 110.268
lradius 118.639
lwrist 19.5975
lhand -33.2355 22.0601
lfingers 7.12502
lthumb -6.44156 51.9422
rfemur -3.4474 8.00324 16.8436
rtibia 8.1737
rfoot -5.23535 -19.8318
rtoes 16.3227
lfemur 1.00604 -10.4989 -16.9978
ltibia 4.77083e-015
lfoot -7.24309 15.7313
ltoes -10.3983
1449
root 6.60343 18.9613 8.9571 -173.961 -2.16538 -180.514
lowerback -1.04781 0.407973 -1.91381
upperback -0.358476 0.554747 -0.443018
thorax 0.206351 0.273552 0.625575
lowerneck -13.7663 -2.4509 -3.14068
upperneck 11.1207 -2.68476 -0.299046
head 5.65252 -1.47901 0.175905
rclavicle 9.19379e-016 2.78299e-015
rhumerus -23.7515 33.7283 -106.463
rradius 116.337
rwrist -8.98377
rhand -35.4155 409.253
rfingers 7.12502
rthumb -8.5458 -340.554
lclavicle 9.19379e-016 2.78299e-015
lhumerus -23.8952 -40.4715 109.953
lradius 118.721
lwrist 19.6141
lhand -33.7009 21.1731
lfingers 7.12502
lthumb -6.89084 51.0409
rfemur -3.31141 7.921 16.6476
rtibia 8.09787
rfoot -5.18948 -19.9022
rtoes 15.8689
lfemur 1.04523 -10.5844 -17.2502
ltibia 6.36111e-015
lfoot -7.06629 15.787
ltoes -11.3203
1450
root 6.5983 18.9594 8.93865 -174.005 -2.212 -180.691
lowerback -1.22449 0.368695 -2.06635
upperback -0.312384 0.508284 -0.488254
thorax 0.35273 0.248185 0.665672
lowerneck -14.024 -2.46147 -3.26192
upperneck 11.4149 -2.67552 -0.227453
head 5.79107 -1.47766 0.213583
rclavicle -5.06901e-015 3.77691e-015
rhumerus -23.6311 33.7911 -106.224
rradius 116.097
rwrist -8.78473
rhand -35.1725 422.762
rfingers 7.12502
rthumb -8.31128 -327.055
lclavicle -5.06901e-015 3.77691e-015
lhumerus -23.7473 -40.4247 109.552
lradius 118.968
lwrist 19.4182
lhand -33.7941 20.8098
lfingers 7.12502
lthumb -6.98078 50.6747
rfemur -3.16392 7.85778 16.4644
rtibia 8.07988
rfoot -5.44142 -19.911
rtoes 15.3083
lfemur 1.16793 -10.6526 -17.4814
ltibia -1.59028e-015
lfoot -7.10428 15.745
ltoes -11.0206
1451
root 6.59139 18.9571 8.92497 -174.068 -2.24641 -180.655
lowerback -1.29451 0.411717 -1.98738
upperback -0.333761 0.565858 -0.504939
thorax 0.369482 0.276845 0.605677
lowerneck -14.1521 -2.51746 -3.24311
upperneck 11.7596 -2.74728 -0.27076
head 5.92188 -1.5201 0.186067
rclavicle 1.79652e-014 -1.5704e-014
rhumerus -23.4921 33.4401 -105.834
rradius 116.329
rwrist -9.68328
rhand -33.9755 423.698
rfingers 7.12502
rthumb -7.1559 -326.161
lclavicle 1.79652e-014 -1.5704e-014
lhumerus -23.7413 -40.4544 109.303
lradius 119.148
lwrist 19.3435
lhand -34.0618 21.3377
lfingers 7.12502
lthumb -7.23924 51.1939
rfemur -3.08696 7.82847 16.4788
rtibia 8.12898
rfoot -5.73998 -19.9699
rtoes 15.2151
lfemur 1.28273 -10.686 -17.4823
ltibia 1.11319e-014
lfoot -7.19101 15.7155
ltoes -10.9641
1452
root 6.5852 18.9561 8.91695 -174.082 -2.37503 -180.509
lowerback -1.34398 0.372331 -1.85329
upperback -0.371144 0.513167 -0.414093
thorax 0.360641 0.251454 0.622964
lowerneck -14.249 -2.49686 -3.21527
upperneck 12.0484 -2.69729 -0.47838
head 6.02609 -1.5169 0.116754
rclavicle 1.50331e-015 -7.55382e-015
rhumerus -23.2808 33.226 -105.304
rradius 116.613
rwrist -10.143
rhand -33.4604 420.375
rfingers 7.12502
rthumb -6.65863 -329.5
lclavicle 1.50331e-015 -7.55382e-015
lhumerus -23.6816 -40.0883 109.055
lradius 119.156
lwrist 19.4722
lhand -35.186 20.3406
lfingers 7.12502
lthumb -8.32431 50.1565
rfemur -3.10492 7.7153 16.6277
rtibia 8.22229
rfoot -5.99602 -19.9674
rtoes 17.0531
lfemur 1.29281 -10.7995 -17.3383
ltibia 3.18055e-015
lfoot -7.17067 15.7446
ltoes -11.5767
1453
root 6.58082 18.956 8.90704 -174.074 -2.5481 -180.659
lowerback -1.4393 0.251718 -2.0168
upperback -0.379106 0.356206 -0.386225
thorax 0.408504 0.172304 0.741042
lowerneck -14.399 -2.43 -3.36677
upperneck 12.3144 -2.56618 -0.53263
head 6.13589 -1.4703 0.132218
rclavicle -8.82107e-016 -5.36719e-015
rhumerus -23.0972 33.2415 -104.815
rradius 116.859
rwrist -9.75042
rhand -33.6758 417.329
rfingers 7.12502
rthumb -6.8666 -332.539
lclavicle -8.82107e-016 -5.36719e-015
lhumerus -23.5859 -39.3471 108.579
lradius 119.434
lwrist 19.114
lhand -35.4092 19.7213
lfingers 7.12502
lthumb -8.53969 49.5286
rfemur -3.08091 7.52667 16.4813
rtibia 8.27411
rfoot -5.9722 -19.8566
rtoes 17.7888
lfemur 1.30008 -10.9878 -17.5033
ltibia 0
lfoot -7.15727 15.7587
ltoes -11.6617
1454
root 6.57719 18.9546 8.89261 -174.127 -2.46916 -180.945
lowerback -1.60344 0.325968 -2.29351
upperback -0.342008 0.462198 -0.51819
thorax 0.534323 0.222194 0.763957
lowerneck -14.3319 -2.46891 -3.31145
upperneck 12.3905 -2.63671 -0.51698
head 6.14914 -1.50196 0.1218
rclavicle -9.08197e-015 -4.17448e-015
rhumerus -22.9371 32.8039 -104.373
rradius 116.79
rwrist -8.36983
rhand -34.5081 418.067
rfingers 7.12502
rthumb -7.67005 -331.774
lclavicle -9.08197e-015 -4.17448e-015
lhumerus -23.3607 -38.9774 107.847
lradius 119.994
lwrist 18.3456
lhand -33.2492 21.871
lfingers 7.12502
lthumb -6.45481 51.7526
rfemur -2.94174 7.5761 16.1455
rtibia 8.26287
rfoot -5.77091 -19.8603
rtoes 15.7572
lfemur 1.44538 -10.9422 -17.871
ltibia -3.18055e-015
lfoot -7.20703 15.7257
ltoes -10.9138
1455
root 6.5698 18.9538 8.87598 -174.127 -2.49462 -180.894
lowerback -1.88754 0.373114 -2.19662
upperback -0.296114 0.532311 -0.542365
thorax 0.739532 0.254985 0.688719
lowerneck -14.1377 -2.53085 -3.18017
upperneck 12.2724 -2.74696 -0.577441
head 6.07741 -1.55263 0.0743896
rclavicle 5.05658e-015 -1.88845e-014
rhumerus -22.7225 32.4272 -103.838
rradius 115.959
rwrist -5.09706
rhand -38.9295 421.495
rfingers 7.12502
rthumb -11.9356 -328.145
lclavicle 5.05658e-015 -1.88845e-014
lhumerus -22.8926 -38.6539 107.054
lradius 120.414
lwrist 18.1766
lhand -31.5508 23.1934
lfingers 7.12502
lthumb -4.81503 53.1187
rfemur -2.83439 7.55461 16.1786
rtibia 8.22385
rfoot -5.9221 -19.9021
rtoes 15.6082
lfemur 1.5091 -10.9628 -17.8609
ltibia 1.90833e-014
lfoot -7.23959 15.7024
ltoes -10.478
